<?xml version="1.0" encoding="utf-8"?>
<!-- Generator: Adobe Illustrator 25.0.0, SVG Export Plug-In . SVG Version: 6.00 Build 0)  -->
<svg version="1.1" id="Layer_1" xmlns="http://www.w3.org/2000/svg" xmlns:xlink="http://www.w3.org/1999/xlink" x="0px" y="0px"
	 viewBox="0 0 120 120" style="enable-background:new 0 0 120 120;" xml:space="preserve">
<style type="text/css">
	.st0{fill:#FFFFFF;}
	.st1{fill:none;stroke:#4E66E1;stroke-width:2;stroke-miterlimit:10;}
	.st2{fill:none;stroke:#4E67E1;stroke-width:2;stroke-miterlimit:10;}
</style>
<g>
	<path class="st0" d="M27.95,61.22c3.95-3.33,7.88-6.68,11.84-10c5.53-4.63,11.08-9.23,16.63-13.84c2.43-2.02,4.74-2.01,7.16,0.01
		c2.94,2.46,5.89,4.92,9.14,7.63c0-2.16,0-4.01,0-5.87c0-3.15,0-3.15,3.14-3.15c1.71,0,3.42-0.02,5.13,0.01
		c1.6,0.02,1.92,0.34,1.93,1.94c0.01,4.79-0.03,9.59,0.04,14.38c0.01,0.64,0.4,1.45,0.88,1.88c2.69,2.39,5.47,4.69,8.21,7.02
		c0,0.28,0,0.57,0,0.85c-0.78,0.95-1.54,1.91-2.35,2.84c-1.03,1.19-1.53,1.22-2.73,0.22c-4.66-3.89-9.32-7.78-13.98-11.67
		c-4.29-3.58-8.59-7.16-12.98-10.83c-2.53,2.1-5.03,4.18-7.53,6.27c-6.45,5.38-12.89,10.75-19.33,16.13
		c-1.35,1.12-1.79,1.1-2.94-0.23c-0.77-0.9-1.5-1.82-2.25-2.74C27.95,61.79,27.95,61.51,27.95,61.22z"/>
	<path class="st0" d="M60,46.18c5.1,4.2,10.15,8.36,15.2,12.52c2.31,1.9,4.64,3.77,6.89,5.73c0.43,0.37,0.78,1.08,0.79,1.64
		c0.06,5.88,0.04,11.77,0.03,17.66c0,2.15-0.99,3.13-3.14,3.13c-4.83,0.01-9.67,0-14.67,0c0-5.12,0-10.13,0-15.22
		c-3.46,0-6.76,0-10.22,0c0,5.1,0,10.11,0,15.21c-5.24,0-10.31,0.04-15.38-0.02c-1.44-0.02-2.4-1.14-2.41-2.67
		c-0.04-6.12-0.02-12.25,0-18.37c0-0.37,0.19-0.86,0.47-1.09C45.02,58.52,52.49,52.37,60,46.18z"/>
</g>
<rect x="5.48" y="6.86" class="st1" width="109.04" height="106.28"/>
</svg>
