<?xml version="1.0" encoding="utf-8"?>
<!-- Generator: Adobe Illustrator 25.0.0, SVG Export Plug-In . SVG Version: 6.00 Build 0)  -->
<svg version="1.1" id="Layer_1" xmlns="http://www.w3.org/2000/svg" xmlns:xlink="http://www.w3.org/1999/xlink" x="0px" y="0px"
	 viewBox="0 0 120 120" style="enable-background:new 0 0 120 120;" xml:space="preserve">
<style type="text/css">
	.st0{fill:#FFFFFF;}
	.st1{fill:none;stroke:#4E67E1;stroke-width:2.0257;stroke-miterlimit:10;}
	.st2{fill:#FEFEFE;}
	.st3{fill:#C7D9E9;}
	.st4{fill:#A8C5D7;}
	.st5{fill:none;stroke:#4E66E1;stroke-width:2.0257;stroke-miterlimit:10;}
</style>
<g>
	<path class="st5" d="M60,114.52L60,114.52C29.89,114.52,5.48,90.11,5.48,60v0C5.48,29.89,29.89,5.48,60,5.48h0
		c30.11,0,54.52,24.41,54.52,54.52v0C114.52,90.11,90.11,114.52,60,114.52z"/>
	<g>
		<path class="st0" d="M28.89,91.25c0.18-0.67,0.36-1.31,0.53-1.95c1.32-4.84,2.65-9.67,3.97-14.51c0.04-0.16,0.04-0.29-0.05-0.44
			c-2.15-3.79-3.47-7.85-3.98-12.18c-1.48-12.58,4.65-24.96,15.57-31.44c3.85-2.28,7.99-3.73,12.44-4.28
			c14.4-1.76,27.19,5.98,33.01,17.88c2.38,4.86,3.42,10.02,3.21,15.42c-0.58,14.48-10.86,26.9-24.99,30.1
			c-7.81,1.77-15.29,0.74-22.39-2.98c-0.17-0.09-0.32-0.1-0.51-0.05c-5.53,1.45-11.06,2.9-16.58,4.35
			C29.06,91.22,29,91.23,28.89,91.25z M36.63,83.59c0.12-0.03,0.18-0.04,0.25-0.06c3.16-0.83,6.33-1.66,9.49-2.49
			c0.28-0.07,0.5-0.08,0.74,0.1c0.16,0.12,0.35,0.21,0.52,0.31c6.45,3.76,13.31,4.78,20.54,2.92c13.95-3.58,22.58-17.86,19.34-31.91
			C84.2,38.09,69.9,29.08,55.52,32.31c-15.41,3.47-24.52,19.52-19.59,34.52c0.78,2.38,1.9,4.6,3.28,6.69
			c0.09,0.14,0.11,0.26,0.06,0.41c-0.71,2.58-1.42,5.17-2.12,7.75C36.98,82.31,36.81,82.93,36.63,83.59z"/>
		<path class="st0" d="M50.88,43.6c0.33,0,0.65,0,0.98,0c0.39,0,0.73,0.15,0.95,0.47c0.21,0.31,0.4,0.63,0.55,0.97
			c0.79,1.87,1.51,3.76,2.35,5.6c0.38,0.84,0.37,1.54-0.1,2.31c-0.48,0.77-1.07,1.45-1.69,2.11c-0.73,0.79-0.78,1.06-0.22,1.98
			c1.97,3.25,4.5,5.95,7.82,7.83c1.05,0.59,2.16,1.08,3.26,1.58c0.62,0.28,1.04,0.17,1.47-0.36c0.87-1.06,1.73-2.13,2.58-3.2
			c0.38-0.48,0.74-0.65,1.32-0.46c0.54,0.18,1.06,0.4,1.58,0.64c1.7,0.81,3.38,1.67,5.09,2.45c0.73,0.33,1,0.82,0.94,1.6
			c-0.08,1-0.27,1.97-0.63,2.91c-0.2,0.54-0.55,0.98-0.97,1.36c-1.31,1.21-2.79,2.1-4.57,2.4c-1.87,0.32-3.7,0.11-5.5-0.51
			c-2.29-0.79-4.55-1.62-6.64-2.86c-2.84-1.68-5.3-3.83-7.52-6.26c-1.87-2.06-3.56-4.25-4.98-6.65c-0.87-1.47-1.53-3.04-1.79-4.74
			c-0.44-2.82,0.17-5.37,2.07-7.56c0.22-0.26,0.46-0.51,0.7-0.76c0.6-0.61,1.33-0.94,2.2-0.92c0.26,0.01,0.51,0,0.77,0
			C50.88,43.58,50.88,43.59,50.88,43.6z"/>
	</g>
</g>
</svg>
