<?xml version="1.0" encoding="utf-8"?>
<!-- Generator: Adobe Illustrator 25.0.0, SVG Export Plug-In . SVG Version: 6.00 Build 0)  -->
<svg version="1.1" id="Layer_1" xmlns="http://www.w3.org/2000/svg" xmlns:xlink="http://www.w3.org/1999/xlink" x="0px" y="0px"
	 viewBox="0 0 120 120" style="enable-background:new 0 0 120 120;" xml:space="preserve">
<style type="text/css">
	.st0{fill:#FFFFFF;}
	.st1{fill:none;stroke:#4E67E1;stroke-width:2.0257;stroke-miterlimit:10;}
	.st2{fill:#FEFEFE;}
	.st3{fill:#C7D9E9;}
	.st4{fill:#A8C5D7;}
	.st5{fill:none;stroke:#4E66E1;stroke-width:2.0257;stroke-miterlimit:10;}
</style>
<g>
	<path class="st5" d="M60,114.52L60,114.52C29.89,114.52,5.48,90.11,5.48,60v0C5.48,29.89,29.89,5.48,60,5.48h0
		c30.11,0,54.52,24.41,54.52,54.52v0C114.52,90.11,90.11,114.52,60,114.52z"/>
	<g>
		<path class="st0" d="M26.9,39.52c0.37,0,0.66,0,0.95,0c6.98,0,13.97,0.15,20.95-0.05c5.75-0.17,9.45,4.11,10.32,8.65
			c0.96,5.01-0.89,8.98-5.7,12.14c0.4,0.16,0.73,0.3,1.06,0.43c7.92,3.09,8.48,13.72,3.41,17.93c-2.49,2.07-5.38,3.03-8.53,3.35
			c-0.65,0.06-1.3,0.09-1.95,0.09c-6.54,0.01-13.08-0.01-19.62,0.02c-0.74,0-0.94-0.22-0.94-0.95c0.02-13.55,0.01-27.1,0.01-40.65
			C26.86,40.18,26.88,39.89,26.9,39.52z M35.18,75.04c4.1,0,8.09,0.01,12.08,0c3.13-0.01,5.39-2.12,5.54-5.26
			c0.14-2.88-1.84-6.18-5.62-5.97c-2.8,0.16-5.61,0.03-8.41,0.02c-1.2,0-2.39,0-3.6,0C35.18,67.64,35.18,71.29,35.18,75.04z
			 M35.17,57.21c0.14,0.04,0.22,0.08,0.3,0.08c3.69,0,7.39,0.02,11.08-0.01c1.16-0.01,2.18-0.5,3.03-1.29
			c1.47-1.35,1.73-3.09,1.55-4.96c-0.26-2.74-2.14-4.45-4.89-4.46c-3.37,0-6.74,0-10.1,0c-0.31,0-0.63,0.03-0.98,0.05
			C35.17,50.19,35.17,53.67,35.17,57.21z"/>
		<path class="st0" d="M94.75,68.79c-7.83,0-15.59,0-23.45,0c0.28,2.87,1.52,5.05,3.93,6.47c3.75,2.22,8.7,1.05,11.13-2.57
			c0.11-0.17,0.44-0.35,0.61-0.31c2.05,0.54,4.09,1.12,6.22,1.71c-0.68,1.5-1.6,2.7-2.73,3.75c-3.18,2.96-7,4.17-11.27,4.2
			c-8.16,0.05-14.54-4.98-15.88-12.77c-1.69-9.82,4.89-18.48,15.22-18.74c5.01-0.12,9.34,1.4,12.65,5.26
			c3.01,3.52,3.99,7.71,3.73,12.24C94.89,68.25,94.82,68.44,94.75,68.79z M71.23,63.63c5.23,0,10.45,0,15.68,0
			c-0.24-4.42-3.73-7.6-8.13-7.47C74.65,56.29,71.19,59.68,71.23,63.63z"/>
		<path class="st0" d="M69.57,42.24c6.31,0,12.57,0,18.9,0c0,2.08,0,4.1,0,6.21c-6.27,0-12.52,0-18.9,0
			C69.57,46.44,69.57,44.4,69.57,42.24z"/>
	</g>
</g>
</svg>
