<?xml version="1.0" encoding="utf-8"?>
<!-- Generator: Adobe Illustrator 25.0.0, SVG Export Plug-In . SVG Version: 6.00 Build 0)  -->
<svg version="1.1" id="Layer_1" xmlns="http://www.w3.org/2000/svg" xmlns:xlink="http://www.w3.org/1999/xlink" x="0px" y="0px"
	 viewBox="0 0 120 120" style="enable-background:new 0 0 120 120;" xml:space="preserve">
<style type="text/css">
	.st0{fill:#FFFFFF;}
	.st1{fill:none;stroke:#4E67E1;stroke-width:2.0257;stroke-miterlimit:10;}
	.st2{fill:#FEFEFE;}
	.st3{fill:#C7D9E9;}
	.st4{fill:#A8C5D7;}
	.st5{fill:none;stroke:#4E66E1;stroke-width:2.0257;stroke-miterlimit:10;}
</style>
<g>
	<g>
		<path class="st0" d="M63.05,84.25c-3.67,0-7.27,0-10.9,0c0-10.88,0-21.76,0-32.66c3.61,0,7.23,0,10.88,0c0,1.48,0,2.97,0,4.46
			c0.02,0.01,0.05,0.02,0.07,0.03c0.13-0.18,0.25-0.35,0.38-0.53c2.5-3.57,6-4.96,10.25-4.74c1.9,0.1,3.72,0.52,5.41,1.43
			c2.84,1.53,4.54,3.96,5.51,6.97c0.66,2.06,0.88,4.19,0.89,6.34c0.01,6.11,0,12.22,0,18.32c0,0.12-0.01,0.24-0.02,0.38
			c-3.64,0-7.25,0-10.93,0c0-0.16,0-0.31,0-0.47c0-5.58,0-11.17,0-16.75c0-1.3-0.08-2.59-0.47-3.84c-0.56-1.83-1.63-3.18-3.59-3.65
			c-3.44-0.82-6.79,1.37-7.37,4.84c-0.1,0.6-0.1,1.22-0.11,1.83c-0.01,5.85,0,11.69,0,17.54C63.05,83.9,63.05,84.05,63.05,84.25z"/>
		<path class="st0" d="M35.13,51.58c3.63,0,7.24,0,10.89,0c0,10.88,0,21.75,0,32.65c-3.62,0-7.24,0-10.89,0
			C35.13,73.37,35.13,62.5,35.13,51.58z"/>
		<path class="st0" d="M40.66,35.75c1.64,0.03,3.15,0.43,4.36,1.58c1.62,1.56,2.11,3.5,1.53,5.65c-0.58,2.15-2.1,3.4-4.22,3.89
			c-1.66,0.38-3.3,0.29-4.85-0.48c-2.09-1.04-3.19-3.12-2.98-5.56c0.19-2.21,1.69-4.04,3.89-4.72c0.31-0.1,0.62-0.18,0.94-0.22
			C39.76,35.82,40.21,35.8,40.66,35.75z"/>
	</g>
	<path class="st1" d="M60,114.52L60,114.52C29.89,114.52,5.48,90.11,5.48,60v0C5.48,29.89,29.89,5.48,60,5.48h0
		c30.11,0,54.52,24.41,54.52,54.52v0C114.52,90.11,90.11,114.52,60,114.52z"/>
</g>
</svg>
