<?xml version="1.0" encoding="utf-8"?>
<!-- Generator: Adobe Illustrator 25.0.0, SVG Export Plug-In . SVG Version: 6.00 Build 0)  -->
<svg version="1.1" id="Layer_1" xmlns="http://www.w3.org/2000/svg" xmlns:xlink="http://www.w3.org/1999/xlink" x="0px" y="0px"
	 viewBox="0 0 120 120" style="enable-background:new 0 0 120 120;" xml:space="preserve">
<style type="text/css">
	.st0{fill:#FFFFFF;}
	.st1{fill:none;stroke:#4E67E1;stroke-width:2.0257;stroke-miterlimit:10;}
	.st2{fill:#FEFEFE;}
	.st3{fill:#C7D9E9;}
	.st4{fill:#A8C5D7;}
	.st5{fill:none;stroke:#4E66E1;stroke-width:2.0257;stroke-miterlimit:10;}
</style>
<g>
	<path class="st1" d="M60,114.52L60,114.52C29.89,114.52,5.48,90.11,5.48,60v0C5.48,29.89,29.89,5.48,60,5.48h0
		c30.11,0,54.52,24.41,54.52,54.52v0C114.52,90.11,90.11,114.52,60,114.52z"/>
	<g>
		<path class="st2" d="M32.54,60.4c-0.67-0.22-1.34-0.45-2.01-0.67c-0.99-0.32-1.5-1.26-1.14-2.12c0.21-0.5,0.65-0.78,1.1-1.03
			c0.77-0.44,1.59-0.77,2.4-1.11c2.6-1.09,5.22-2.11,7.85-3.11c4.23-1.6,8.46-3.2,12.69-4.78c4.96-1.84,9.92-3.66,14.88-5.47
			c4.73-1.73,9.46-3.43,14.19-5.15c0.59-0.21,1.2-0.37,1.84-0.37c0.97,0,1.47,0.45,1.59,1.41c0.11,0.92-0.01,1.82-0.15,2.72
			c-0.49,3.26-1.22,6.47-1.94,9.69c-0.72,3.21-1.46,6.4-2.2,9.61c-0.02,0.08-0.03,0.15-0.04,0.23c-0.01,0.06-0.02,0.12-0.04,0.19
			c-0.16,0.5-0.26,1.01-0.36,1.53c-0.03,0.1-0.05,0.19-0.08,0.29c-0.07,0.24-0.14,0.47-0.15,0.71c-0.29,0.89-0.47,1.8-0.68,2.71
			c-0.37,1.61-0.76,3.22-1.15,4.83c-0.84,3.46-1.69,6.92-2.53,10.37c-0.04,0.15-0.07,0.31-0.13,0.45c-0.79,2.16-3,2.73-4.81,1.2
			c-1.58-1.34-3.25-2.56-4.92-3.78c-2.06-1.49-4.14-2.95-6.23-4.39c-0.1-0.07-0.18-0.16-0.31-0.16c-0.04-0.11-0.14-0.16-0.23-0.22
			c-2.56-1.77-5.13-3.51-7.71-5.25c-0.31-0.21-0.68-0.37-0.9-0.7c-0.04-0.31,0.08-0.54,0.31-0.75c2.27-2.03,4.53-4.05,6.78-6.09
			c1.89-1.71,3.77-3.44,5.64-5.17c1.68-1.55,3.34-3.11,4.99-4.7c1.64-1.58,3.28-3.16,4.8-4.85c0.37-0.41,0.75-0.83,1.04-1.31
			c0.07-0.12,0.16-0.25,0.05-0.37c-0.11-0.12-0.25-0.06-0.38,0c-0.08,0.04-0.16,0.07-0.24,0.12c-0.51,0.29-1.02,0.58-1.53,0.88
			c-2.77,1.63-5.49,3.32-8.21,5.01c-3.26,2.02-6.51,4.06-9.76,6.09c-3.13,1.96-6.26,3.95-9.4,5.9c-0.69,0.43-1.3,1.02-2.17,1.12
			c-0.47-0.15-0.94-0.32-1.41-0.46c-0.56-0.17-1.09-0.45-1.67-0.56c-0.14-0.08-0.29-0.12-0.45-0.15c-0.1-0.03-0.19-0.07-0.29-0.1
			c-0.15-0.07-0.31-0.13-0.48-0.14c-0.05-0.04-0.11-0.06-0.18-0.06c-0.46-0.19-0.93-0.34-1.41-0.46c-0.08-0.03-0.16-0.05-0.23-0.08
			c-0.2-0.11-0.43-0.16-0.65-0.21c-0.08-0.02-0.16-0.05-0.23-0.07c-0.4-0.18-0.82-0.3-1.24-0.41c-0.08-0.03-0.15-0.05-0.23-0.08
			c-0.74-0.27-1.48-0.51-2.24-0.73l-0.02-0.01L32.54,60.4z"/>
		<path class="st3" d="M43.3,63.93c0.86-0.1,1.48-0.69,2.17-1.12c3.14-1.95,6.26-3.94,9.4-5.9c3.25-2.04,6.5-4.07,9.76-6.09
			c2.73-1.69,5.45-3.39,8.21-5.01c0.51-0.3,1.02-0.59,1.53-0.88c0.08-0.04,0.16-0.08,0.24-0.12c0.13-0.06,0.27-0.12,0.38,0
			c0.12,0.13,0.02,0.26-0.05,0.37c-0.29,0.48-0.67,0.9-1.04,1.31c-1.53,1.69-3.17,3.27-4.8,4.85c-1.65,1.58-3.32,3.15-4.99,4.7
			c-1.87,1.73-3.75,3.46-5.64,5.17c-2.25,2.04-4.52,4.07-6.78,6.09c-0.23,0.21-0.35,0.44-0.31,0.75c-0.13,0.44-0.12,0.89-0.17,1.34
			c-0.1,0.98-0.19,1.97-0.28,2.95c-0.1,1.09-0.21,2.18-0.31,3.27c-0.11,1.16-0.23,2.32-0.33,3.48c-0.07,0.9-0.28,1.81,0.03,2.71
			c-0.47-0.4-0.82-0.9-1.03-1.48c-0.88-2.39-1.74-4.79-2.61-7.19c-0.9-2.49-1.8-4.98-2.7-7.47C43.76,65.08,43.52,64.5,43.3,63.93z"
			/>
		<path class="st4" d="M50.31,81.8c-0.31-0.9-0.1-1.81-0.03-2.71c0.09-1.16,0.22-2.32,0.33-3.48c0.1-1.09,0.21-2.18,0.31-3.27
			c0.09-0.98,0.18-1.97,0.28-2.95c0.05-0.45,0.04-0.9,0.17-1.34c0.22,0.33,0.58,0.49,0.9,0.7c2.58,1.73,5.15,3.48,7.71,5.25
			c0.09,0.06,0.19,0.1,0.23,0.22c-0.27,0.34-0.63,0.58-0.95,0.86c-2.02,1.75-3.98,3.56-5.88,5.45c-0.4,0.4-0.83,0.78-1.3,1.1
			c-0.22,0.15-0.45,0.27-0.7,0.37C50.97,82.17,50.62,82.11,50.31,81.8z"/>
	</g>
</g>
</svg>
