<?xml version="1.0" encoding="utf-8"?>
<!-- Generator: Adobe Illustrator 25.0.0, SVG Export Plug-In . SVG Version: 6.00 Build 0)  -->
<svg version="1.1" id="Layer_1" xmlns="http://www.w3.org/2000/svg" xmlns:xlink="http://www.w3.org/1999/xlink" x="0px" y="0px"
	 viewBox="0 0 120 120" style="enable-background:new 0 0 120 120;" xml:space="preserve">
<style type="text/css">
	.st0{fill:none;stroke:#4E66E1;stroke-width:2.0257;stroke-miterlimit:10;}
	.st1{fill:none;stroke:#4E66E1;stroke-width:2;stroke-miterlimit:10;}
	.st2{fill:#FFFFFF;}
	.st3{fill:none;stroke:#4E67E1;stroke-width:2;stroke-miterlimit:10;}
</style>
<rect x="5.48" y="6.86" class="st1" width="109.04" height="106.28"/>
<path class="st2" d="M68.53,39.28c-1.46-1.18-2.99-1.9-4.66-2.29c-1.75-0.4-3.53-0.78-5.3-0.17c-2.44,0.85-4,2.52-4.47,5.11
	c-0.21,1.15,0.16,2.12,0.95,2.94c1.1,1.14,2.53,1.69,4,2.17c2.85,0.94,5.74,0.81,8.59,0.14c2.29-0.54,4.53-1.31,6.79-1.98
	c0.08-0.02,0.17-0.05,0.36-0.1c-1.39,4.98-2.76,9.89-4.11,14.72c-1.08-0.57-2.09-1.22-3.18-1.68c-3.05-1.3-6.18-1.24-9.35-0.42
	c-3.92,1.02-5.83,3.84-6.78,7.52c-0.39,1.52-0.5,3.06-0.24,4.62c0.19,1.11,0.78,2.03,1.4,2.92c1.99,2.86,4.8,4.66,7.93,6.01
	c3.36,1.45,6.9,2.26,10.51,2.78c3.54,0.51,7.1,0.71,10.68,0.65c0.12,0,0.24,0.01,0.55,0.03c-0.7,0.55-1.26,1.02-1.85,1.44
	c-3.82,2.71-8.09,4.35-12.66,5.2c-3.99,0.75-8,0.99-12.03,0.33c-4.93-0.8-9.45-2.54-13.18-5.97c-3.14-2.89-4.79-6.45-4.7-10.78
	c0.1-4.61,1.99-8.43,5.09-11.71c0.87-0.92,1.85-1.77,2.84-2.56c1-0.79,2.08-1.46,3.18-2.22c-0.35-0.51-0.76-1.05-1.11-1.63
	c-0.79-1.31-1.72-2.57-2.3-3.97c-0.92-2.24-0.85-4.64-0.46-7c0.52-3.18,1.7-6.08,3.81-8.54c2.49-2.89,5.6-4.57,9.49-4.5
	c2.45,0.04,4.64,0.96,6.52,2.47c1.19,0.95,2.23,2.1,3.29,3.2c0.23,0.25,0.33,0.69,0.36,1.05C68.57,37.77,68.53,38.45,68.53,39.28z"
	/>
</svg>
