<?xml version="1.0" encoding="utf-8"?>
<!-- Generator: Adobe Illustrator 25.0.0, SVG Export Plug-In . SVG Version: 6.00 Build 0)  -->
<svg version="1.1" id="Layer_1" xmlns="http://www.w3.org/2000/svg" xmlns:xlink="http://www.w3.org/1999/xlink" x="0px" y="0px"
	 viewBox="0 0 120 120" style="enable-background:new 0 0 120 120;" xml:space="preserve">
<style type="text/css">
	.st0{fill:none;stroke:#4E66E1;stroke-width:2.0257;stroke-miterlimit:10;}
	.st1{fill:#FFFFFF;}
	.st2{fill:none;stroke:#4E66E1;stroke-width:2;stroke-miterlimit:10;}
	.st3{fill:none;stroke:#4E67E1;stroke-width:2;stroke-miterlimit:10;}
</style>
<path class="st0" d="M60,114.52L60,114.52C29.89,114.52,5.48,90.11,5.48,60v0C5.48,29.89,29.89,5.48,60,5.48h0
	c30.11,0,54.52,24.41,54.52,54.52v0C114.52,90.11,90.11,114.52,60,114.52z"/>
<g>
	<path class="st1" d="M59.59,64.23c-9.73-8.4-19.34-16.69-29.28-25.27c-0.46-0.4-0.19-1.16,0.43-1.16H89.3
		c0.61,0,0.89,0.76,0.43,1.16c-9.89,8.54-19.52,16.85-29.27,25.27C60.21,64.44,59.84,64.44,59.59,64.23z"/>
	<path class="st1" d="M60.47,68.11c2.3-1.97,4.48-3.84,6.82-5.84c0.25-0.21,0.62-0.22,0.87,0c7.13,6.18,14.22,12.33,21.64,18.77
		c0.46,0.4,0.18,1.16-0.43,1.16H30.68c-0.61,0-0.89-0.76-0.43-1.16c7.33-6.37,14.39-12.49,21.6-18.75c0.25-0.21,0.61-0.22,0.86-0.01
		c2.28,1.93,4.51,3.81,6.89,5.83C59.86,68.33,60.23,68.33,60.47,68.11z"/>
	<path class="st1" d="M28.86,77.2V43.08c0-0.57,0.67-0.86,1.1-0.5c6.8,5.86,13.34,11.5,20.06,17.28c0.31,0.27,0.31,0.75-0.01,1.01
		c-6.71,5.63-13.28,11.14-20.06,16.82C29.51,78.06,28.86,77.76,28.86,77.2z"/>
	<path class="st1" d="M70.04,59.87c6.75-5.82,13.26-11.43,20.01-17.24c0.43-0.37,1.1-0.07,1.1,0.5v34.04c0,0.56-0.66,0.87-1.08,0.51
		L70.05,60.88C69.73,60.61,69.73,60.13,70.04,59.87z"/>
</g>
</svg>
