<?xml version="1.0" encoding="utf-8"?>
<!-- Generator: Adobe Illustrator 25.0.0, SVG Export Plug-In . SVG Version: 6.00 Build 0)  -->
<svg version="1.1" id="Layer_1" xmlns="http://www.w3.org/2000/svg" xmlns:xlink="http://www.w3.org/1999/xlink" x="0px" y="0px"
	 viewBox="0 0 120 120" style="enable-background:new 0 0 120 120;" xml:space="preserve">
<style type="text/css">
	.st0{fill:#FFFFFF;}
	.st1{fill:none;stroke:#4E66E1;stroke-width:2;stroke-miterlimit:10;}
	.st2{fill:none;stroke:#4E67E1;stroke-width:2;stroke-miterlimit:10;}
</style>
<path class="st0" d="M53.98,45.96c5.05,0,10.04-0.01,15.04,0c5.18,0.02,6.49,1.07,6.26,6.2c-0.17,3.82,0.97,5.38,4.89,4.84
	c2.04-0.28,4.17-0.14,6.24,0c2.31,0.16,3.14,1.38,1.8,3.44c-3.73,5.75-7.32,11.62-11.46,17.07c-1.17,1.54-4,2.51-6.09,2.56
	c-11.51,0.24-23.03,0.1-34.55,0.13c-3.4,0.01-4.94-1.74-4.94-4.99c-0.02-10.54-0.05-21.08,0.02-31.63c0.02-3.62,1.54-4.98,5.24-5.02
	c3.55-0.04,7.11-0.02,10.66-0.01c5.25,0.01,5.87,0.57,6.48,5.69C53.62,44.71,53.78,45.16,53.98,45.96z M83.49,61.45
	c-0.85-0.34-1.18-0.58-1.5-0.58c-10.41-0.04-20.81-0.09-31.22-0.01c-1.11,0.01-2.67,0.47-3.25,1.27c-3.33,4.63-6.42,9.43-9.96,14.72
	c11.71,0,22.69,0.06,33.66-0.09c1.12-0.01,2.59-0.96,3.28-1.91C77.55,70.58,80.37,66.14,83.49,61.45z M71.54,49.94
	c-5.91,0-11.41-0.21-16.88,0.07c-3.62,0.19-5.37-0.84-4.82-4.66c0.41-2.83-0.99-3.63-3.64-3.42c-2.56,0.2-5.16,0.21-7.71,0
	c-2.73-0.23-3.69,0.75-3.62,3.5c0.15,6.25,0.04,12.5,0.04,18.75c0,2.75,0,5.5,0,8.26c0.31,0.08,0.63,0.17,0.94,0.25
	c2.61-3.91,5.28-7.79,7.81-11.75c1.75-2.74,4.18-3.98,7.38-3.94C54.23,57.03,57.41,57,60.6,57c3.62,0,7.24,0,10.95,0
	C71.54,54.44,71.54,52.51,71.54,49.94z"/>
<rect x="5.48" y="6.86" class="st2" width="109.04" height="106.28"/>
</svg>
