<?xml version="1.0" encoding="utf-8"?>
<!-- Generator: Adobe Illustrator 25.0.0, SVG Export Plug-In . SVG Version: 6.00 Build 0)  -->
<svg version="1.1" id="Layer_1" xmlns="http://www.w3.org/2000/svg" xmlns:xlink="http://www.w3.org/1999/xlink" x="0px" y="0px"
	 viewBox="0 0 120 120" style="enable-background:new 0 0 120 120;" xml:space="preserve">
<style type="text/css">
	.st0{fill:none;stroke:#4E66E1;stroke-width:2.0257;stroke-miterlimit:10;}
	.st1{fill:none;stroke:#4E66E1;stroke-width:2;stroke-miterlimit:10;}
	.st2{fill:#FFFFFF;}
	.st3{fill:none;stroke:#4E67E1;stroke-width:2;stroke-miterlimit:10;}
</style>
<rect x="5.48" y="6.86" class="st1" width="109.04" height="106.28"/>
<g>
	<path class="st2" d="M81.87,73.27c-0.56,3.06-2.17,10.57-2.89,13.19H38.13v-2.34c7.51-0.56,8.24-1.34,8.24-8.01V44.22
		c0-7.46-0.72-7.68-7.18-8.24v-2.45h37.73c0.11,2.11,0.45,7.51,0.78,12.08l-2.56,0.33c-0.78-3.39-1.67-5.29-2.73-7.07
		c-1.22-1.78-3.51-2.34-9.24-2.34h-6.18c-2.73,0-2.89,0.22-2.89,2.67v18.25h7.62c7.46,0,8.01-0.67,9.07-6.18h2.5v15.97h-2.5
		c-1.17-5.96-1.78-6.4-9.07-6.4H54.1v14.97c0,3.84,0.45,5.68,2,6.68c1.61,0.95,4.73,0.95,8.52,0.95c6.07,0,8.57-0.56,10.46-2.67
		c1.45-1.73,3.01-4.56,4.23-7.85L81.87,73.27z"/>
</g>
</svg>
