<?xml version="1.0" encoding="utf-8"?>
<!-- Generator: Adobe Illustrator 25.0.0, SVG Export Plug-In . SVG Version: 6.00 Build 0)  -->
<svg version="1.1" id="Layer_1" xmlns="http://www.w3.org/2000/svg" xmlns:xlink="http://www.w3.org/1999/xlink" x="0px" y="0px"
	 viewBox="0 0 120 120" style="enable-background:new 0 0 120 120;" xml:space="preserve">
<style type="text/css">
	.st0{fill:#FFFFFF;}
	.st1{fill:none;stroke:#4E66E1;stroke-width:2;stroke-miterlimit:10;}
	.st2{fill:none;stroke:#4E67E1;stroke-width:2;stroke-miterlimit:10;}
</style>
<g>
	<path class="st0" d="M54.58,57.61c1.36-2.31,2.28-4.95,4.07-6.7c5.87-5.72,12.06-11.12,18.14-16.63c2.5-2.27,5.24-3.34,8.24-1.03
		c2.91,2.24,2.54,5.3,1.05,7.96C81.96,48.57,77.91,56,73.16,62.95c-4.18,6.1-11.38,6.34-15.55,1.03
		C56.32,62.33,55.74,60.12,54.58,57.61z"/>
	<path class="st0" d="M32.82,69.17c0.7,0.17,0.83,0.18,0.93,0.24c1.8,0.99,3.64,2.79,5.38,2.7c1.2-0.06,2.26-2.74,3.38-4.26
		c2.69-3.62,6.59-4.42,10.72-4.43c0.76,0,1.56,0.94,2.27,1.55c1.01,0.87,1.86,1.96,2.94,2.72c4.22,2.98,4.75,4.53,3.02,9.6
		c-2.18,6.43-8.5,10.26-15.63,9.47c-7.16-0.79-12.38-6.44-13.01-14.12C32.74,71.59,32.82,70.51,32.82,69.17z"/>
</g>
<rect x="5.48" y="6.86" class="st1" width="109.04" height="106.28"/>
</svg>
